<?xml version="1.0" encoding="UTF-8"?><!DOCTYPE svg PUBLIC "-//W3C//DTD SVG 1.1//EN" "http://www.w3.org/Graphics/SVG/1.1/DTD/svg11.dtd"><svg xmlns="http://www.w3.org/2000/svg" xmlns:xlink="http://www.w3.org/1999/xlink"><defs>
<lineargradient id="paint0_linear" x1="0" y1="0" x2="252.667" y2="17.1712" gradientunits="userSpaceOnUse">
<stop stop-color="#FFD646"/>
<stop offset="1" stop-color="#FF2C0F"/>
</lineargradient>
<lineargradient id="paint1_linear" x1="0" y1="0" x2="252.667" y2="17.1712" gradientunits="userSpaceOnUse">
<stop stop-color="#FFD646"/>
<stop offset="1" stop-color="#FF2C0F"/>
</lineargradient>
<lineargradient id="paint2_linear" x1="69" y1="41" x2="178.014" y2="48.5595" gradientunits="userSpaceOnUse">
<stop stop-color="#FFD646"/>
<stop offset="1" stop-color="#FF2C0F"/>
</lineargradient>
<lineargradient id="paint3_linear" x1="41" y1="157" x2="202.251" y2="191.237" gradientunits="userSpaceOnUse">
<stop stop-color="#FFD646"/>
<stop offset="1" stop-color="#FF2C0F"/>
</lineargradient>
<lineargradient id="paint4_linear" x1="48" y1="181" x2="49.5696" y2="196.403" gradientunits="userSpaceOnUse">
<stop stop-color="#FFD646"/>
<stop offset="1" stop-color="#FF2C0F"/>
</lineargradient>
<lineargradient id="paint5_linear" x1="54" y1="206" x2="55.7079" y2="221.373" gradientunits="userSpaceOnUse">
<stop stop-color="#FFD646"/>
<stop offset="1" stop-color="#FF2C0F"/>
</lineargradient>
</defs><symbol id="icon-Slogan-end-2" viewBox="0 0 187 30">
    <!-- Generator: Sketch 53.2 (72643) - https://sketchapp.com -->
    <title>Group</title>
    <desc>Created with Sketch.</desc>
    <g id="Page-1" stroke-width="1" fill-rule="evenodd">
        <g id="Group" transform="translate(-0.000000, -0.742677)">
            <path d="M2,18.0629899 C80.7637576,-5.45654136 102.81761,53.3833024 186.5,18.0629899" id="Underline" stroke-opacity="0.301983173"/>
            <path d="M10.4936285,1.35684986 L13.2446322,12.2137361 L10.7475483,12.8464669 L8.51530538,4.03687925 L3.61419673,5.2787609 L5.8464397,14.0883486 L3.34935586,14.7210794 L0.59835221,3.86419319 L10.4936285,1.35684986 Z M19.3923001,2.25747836 C20.1820773,2.12997051 20.9300903,2.19558615 21.6363612,2.45432726 C22.3426322,2.71306837 22.9331685,3.14175453 23.4079878,3.7403986 C23.882807,4.33904267 24.1907664,5.07536375 24.3318751,5.94938394 C24.4729838,6.82340413 24.4123859,7.61922798 24.1500797,8.33687937 C23.8877735,9.05453077 23.462145,9.64727457 22.8731812,10.1151286 C22.2842174,10.5829825 21.5948573,10.880659 20.80508,11.0081668 C19.7204525,11.1832776 18.8122533,10.9787523 18.080455,10.3945849 L18.7205412,14.359247 L16.2564484,14.7570695 L14.3897429,3.19478796 L16.7432674,2.81481647 L16.9013763,3.7941354 C17.3931301,2.95840387 18.2234297,2.44618998 19.3923001,2.25747836 Z M20.0521839,9.05520101 C20.6840057,8.95319473 21.1681918,8.65622917 21.5047565,8.16429541 C21.8413213,7.67236165 21.9517985,7.06837146 21.8361914,6.35230673 C21.7205842,5.636242 21.4256485,5.09770486 20.9513752,4.73667916 C20.477102,4.37565346 19.9240628,4.24614569 19.2922409,4.34815197 C18.6604191,4.45015825 18.1762331,4.74712382 17.8396683,5.23905758 C17.5031036,5.73099134 17.3926264,6.33498152 17.5082335,7.05104626 C17.6238406,7.76711099 17.9187764,8.30564812 18.3930496,8.66667382 C18.8673229,9.02769952 19.4203621,9.15720729 20.0521839,9.05520101 Z M26.1712061,1.4479396 L28.6455709,1.2808498 L28.9905305,6.38921577 L32.8280455,0.998414146 L35.1108466,0.844260333 L35.6908099,9.43270062 L33.2164451,9.59979042 L32.8714855,4.49142445 L29.0499341,9.88114808 L26.7511694,10.0363799 L26.1712061,1.4479396 Z M50.8961495,1.35778942 L50.3329352,9.94734433 L47.8422836,9.78403311 L48.0516569,6.59089002 C47.3041451,6.90532318 46.494003,7.03392333 45.6212061,6.97669433 C44.461025,6.90062163 43.6028535,6.57978734 43.0466659,6.01418183 C42.4904782,5.44857632 42.2486796,4.6123052 42.3212627,3.5053434 L42.4981832,0.807137487 L44.9888348,0.970448707 L44.822383,3.50899746 C44.7881852,4.03054678 44.8991168,4.41729654 45.1551812,4.66925836 C45.4112456,4.92122019 45.7947248,5.06394891 46.3056302,5.09744881 C46.9549059,5.14002161 47.5759916,5.04178295 48.168906,4.80272989 L48.4054979,1.1944782 L50.8961495,1.35778942 Z M56.679966,10.9265981 C55.7833634,10.7918521 55.007208,10.4837499 54.3514763,10.0022823 C53.6957447,9.52081468 53.2174043,8.91769986 52.9164407,8.19291974 C52.6154772,7.46813961 52.5284066,6.68383069 52.6552264,5.83996944 C52.7820462,4.9961082 53.0958037,4.27203776 53.5965083,3.66773642 C54.097213,3.06343508 54.7316979,2.62756132 55.4999821,2.36010207 C56.2682663,2.09264283 57.1006972,2.0262872 57.9972998,2.16103321 C58.8939024,2.29577921 59.6674208,2.60348509 60.3178783,3.08416008 C60.9683359,3.56483507 61.4440393,4.16755358 61.7450028,4.8923337 C62.0459663,5.61711383 62.1330369,6.40142275 62.0062171,7.245284 C61.8793973,8.08914524 61.5656398,8.81321568 61.0649352,9.41751702 C60.5642305,10.0218184 59.9323826,10.4580884 59.1693725,10.7263403 C58.4063625,10.9945922 57.5765686,11.0613441 56.679966,10.9265981 Z M56.9843319,8.90134122 C57.6172279,8.99645605 58.1688229,8.86092913 58.6391337,8.49475638 C59.1094444,8.12858364 59.3984938,7.58686437 59.5062907,6.8695823 C59.6140875,6.15230024 59.4970348,5.54954987 59.155129,5.0613131 C58.8132233,4.57307633 58.3258298,4.2814049 57.6929339,4.18629008 C57.0600379,4.09117525 56.5058058,4.22630587 56.030221,4.59168599 C55.5546361,4.9570661 55.2629497,5.49838907 55.1551528,6.21567113 C55.047356,6.93295319 55.1670458,7.53609987 55.5142256,8.02512927 C55.8614055,8.51415866 56.351436,8.80622639 56.9843319,8.90134122 Z M71.2278471,13.7188453 L72.381244,8.69761242 L68.9034935,12.3312645 L67.8742967,12.094854 L66.3967718,7.30653905 L65.239793,12.3433658 L63.0410544,11.838307 L64.9681585,3.44879362 L67.5099627,4.03265601 L69.0781168,9.49845628 L73.045794,5.30425813 L75.322502,5.82722689 L73.4265858,14.2239042 L71.2278471,13.7188453 Z M86.3546201,8.8008362 L80.1650995,16.5643969 C79.5195258,17.4147332 78.8624698,17.9574504 78.1939118,18.192565 C77.5253539,18.4276795 76.7953733,18.435417 76.0039481,18.2157778 C75.5722616,18.0959746 75.1642614,17.9107918 74.7799351,17.6602238 C74.3956089,17.4096558 74.1026362,17.1290942 73.9010082,16.8185306 L75.2547259,15.3510946 C75.394095,15.5668908 75.5717103,15.7545546 75.7875771,15.9140916 C76.0034438,16.0736286 76.2295736,16.1861986 76.4659734,16.2518051 C76.7948773,16.3430838 77.084214,16.3375913 77.3339921,16.2353276 C77.5837702,16.1330639 77.8422255,15.9197464 78.109366,15.5953688 L78.1615939,15.5268396 L76.8884001,6.1737361 L79.3705848,6.86260111 L80.136884,13.1359927 L84.0420256,8.1590365 L86.3546201,8.8008362 Z M98.3050249,14.3361958 L95.5042523,13.5390654 L93.708519,19.8484982 L91.3232456,19.1696234 L93.1189789,12.8601907 L90.3182063,12.0630603 L90.8788255,10.0932861 L98.865644,12.3664217 L98.3050249,14.3361958 Z M108.379861,14.80137 L102.344134,22.6850893 C101.715398,23.5479504 101.069137,24.1034776 100.405329,24.3516876 C99.7415217,24.5998976 99.0118342,24.6219818 98.2162448,24.4179409 C97.782287,24.3066459 97.3707257,24.1295183 96.9815486,23.8865529 C96.5923715,23.6435874 96.2939408,23.3688386 96.0862475,23.062298 L97.4108604,21.5685375 C97.5544442,21.7815526 97.7357138,21.965689 97.9546747,22.1209522 C98.1736355,22.2762154 98.4019343,22.384319 98.6395779,22.4452663 C98.9702124,22.5300625 99.2593852,22.518884 99.507105,22.4117305 C99.7548248,22.3045771 100.009037,22.0862207 100.26975,21.7566549 L100.320621,21.6871125 L98.8638329,12.3608412 L101.359078,13.0007844 L102.248536,19.257902 L106.055099,14.2051496 L108.379861,14.80137 Z M115.891035,18.4126612 L113.038322,17.828051 L111.721343,24.2544938 L109.291834,23.7566114 L110.608813,17.3301687 L107.756099,16.7455585 L108.167254,14.7392544 L116.30219,16.4063572 L115.891035,18.4126612 Z M124.45754,22.7927676 L123.167537,22.6682269 L122.853879,25.9171213 L120.369431,25.6772651 L121.196627,17.1091025 L123.681076,17.3489587 L123.35973,20.6774828 L124.69751,20.8066361 L127.344045,17.7025928 L129.987753,17.9578244 L126.596989,21.7776627 L129.367594,26.545975 L126.437219,26.2630677 L124.45754,22.7927676 Z M134.360538,26.673091 C133.453879,26.6684633 132.64153,26.474983 131.923469,26.0926445 C131.205407,25.7103059 130.645435,25.1821128 130.243535,24.5080494 C129.841635,23.8339859 129.642865,23.0703024 129.647221,22.2169759 C129.651576,21.3636494 129.858131,20.6020347 130.266891,19.932109 C130.675651,19.2621832 131.240986,18.7397338 131.962913,18.3647451 C132.68484,17.9897564 133.499121,17.8045787 134.40578,17.8092064 C135.31244,17.8138341 136.122121,18.0073007 136.83485,18.3896121 C137.547578,18.7719234 138.104884,19.3001029 138.506784,19.9741663 C138.908684,20.6482298 139.107453,21.4119133 139.103098,22.2652398 C139.098742,23.1185663 138.892188,23.880181 138.483428,24.5501067 C138.074668,25.2200325 137.511999,25.7424955 136.795405,26.1175114 C136.078812,26.4925273 135.267197,26.6777187 134.360538,26.673091 Z M134.370991,24.6251176 C135.010986,24.6283842 135.53741,24.4150705 135.950278,23.9851701 C136.363146,23.5552696 136.571428,22.9776643 136.575131,22.2523368 C136.578833,21.5270093 136.376458,20.9473079 135.967999,20.5132153 C135.559541,20.0791227 135.035322,19.8604463 134.395327,19.8571797 C133.755332,19.8539131 133.226242,20.0672132 132.80804,20.4970865 C132.389839,20.9269597 132.17889,21.5045514 132.175188,22.2298789 C132.171486,22.9552065 132.376528,23.5349214 132.790319,23.9690413 C133.204111,24.4031611 133.730996,24.621851 134.370991,24.6251176 Z M147.133323,19.3483106 L144.23089,19.584161 L144.762201,26.1226094 L142.290348,26.3234711 L141.759037,19.7850226 L138.856604,20.020873 L138.690731,17.9796013 L146.96745,17.3070389 L147.133323,19.3483106 Z M147.54303,17.189156 L149.987994,16.7737588 L150.845588,21.8214248 L154.12077,16.0716035 L156.376446,15.6883661 L157.818276,24.1747546 L155.373313,24.5901518 L154.515719,19.5424858 L151.25631,25.2896271 L148.984861,25.6755445 L147.54303,17.189156 Z M163.004422,19.5720134 L161.749686,19.8964383 L162.566756,23.0565162 L160.150226,23.6813347 L157.995403,15.3474039 L160.411933,14.7225854 L161.24903,17.9601161 L162.550238,17.6236754 L163.974766,13.8013786 L166.546202,13.1365077 L164.667327,17.8860631 L168.902402,21.4183703 L166.052136,22.1553357 L163.004422,19.5720134 Z M167.302069,12.8781285 L169.650331,12.0805912 L171.296859,16.9286159 L173.619651,10.732496 L175.786112,9.99670352 L178.554338,18.1474451 L176.206076,18.9449824 L174.559547,14.0969576 L172.251906,20.2879322 L170.070295,21.02887 L167.302069,12.8781285 Z M181.823727,12.7232506 C181.613884,12.2098069 181.55638,11.7378193 181.651212,11.3072736 C181.746045,10.8767278 181.932895,10.3682501 182.211769,9.78182513 C182.416545,9.35243844 182.554091,9.00526807 182.62441,8.74030362 C182.694729,8.47533916 182.677429,8.21449994 182.572507,7.95777814 C182.423197,7.59244325 182.159524,7.36315726 181.781482,7.26991329 C181.403439,7.17666931 180.972514,7.2289146 180.488692,7.42665072 C180.024618,7.61631598 179.651733,7.88106193 179.370026,8.22089652 C179.088319,8.5607311 178.894664,8.95387891 178.789056,9.40035174 L176.567178,9.08121203 C176.723615,8.27979332 177.084201,7.56203455 177.648946,6.92791418 C178.213691,6.29379382 178.979873,5.77900524 179.947517,5.383533 C181.083017,4.91945844 182.092739,4.78910282 182.976712,4.99246224 C183.860686,5.19582166 184.478204,5.72700873 184.829287,6.5860394 C184.994739,6.99086995 185.073365,7.37356434 185.065165,7.73413404 C185.056966,8.09470375 184.999977,8.42047376 184.894198,8.71145385 C184.788418,9.00243395 184.638981,9.3487028 184.445881,9.7502708 C184.213716,10.225421 184.059106,10.608373 183.982046,10.8991385 C183.904987,11.1899039 183.931024,11.4932647 184.060157,11.80923 L181.823727,12.7232506 Z M184.46868,15.9807244 C184.063849,16.1461771 183.672204,16.1535611 183.293732,16.0028767 C182.915261,15.8521923 182.649356,15.5892496 182.496009,15.2140408 C182.342663,14.838832 182.347836,14.4708624 182.511528,14.1101209 C182.67522,13.7493794 182.964414,13.4842686 183.379119,13.3147805 C183.793823,13.1452924 184.185919,13.1319626 184.555418,13.2747909 C184.924918,13.4176191 185.186336,13.6766337 185.339683,14.0518425 C185.493029,14.4270513 185.487406,14.8009666 185.322812,15.1735998 C185.158218,15.5462329 184.87351,15.8152717 184.46868,15.9807244 Z" id="&#x41F;&#x440;&#x438;&#x447;&#x43E;&#x43C;&#x443;&#x442;&#x443;&#x442;&#x43A;&#x43E;&#x442;&#x438;&#x43A;&#x438;?" fill-rule="nonzero"/>
        </g>
    </g>
</symbol><symbol id="icon-join-button" viewBox="0 0 241 240">
<rect class="organizers__join-button-rect" x="1" y="1" width="239" height="238" rx="29" fill-opacity="0.01" stroke-width="2"/>
<path d="M173 95.5H124.75V142.5H117V95.5H69V88.25H117V41H124.75V88.25H173V95.5Z"/>
<path d="M61.9 162V176H58.68V164.64H52.36V176H49.14V162H61.9ZM71.6705 165.08C72.6705 165.08 73.5771 165.313 74.3905 165.78C75.2171 166.233 75.8638 166.88 76.3305 167.72C76.7971 168.547 77.0305 169.513 77.0305 170.62C77.0305 171.727 76.7971 172.7 76.3305 173.54C75.8638 174.367 75.2171 175.013 74.3905 175.48C73.5771 175.933 72.6705 176.16 71.6705 176.16C70.2971 176.16 69.2171 175.727 68.4305 174.86V179.88H65.3105V165.24H68.2905V166.48C69.0638 165.547 70.1905 165.08 71.6705 165.08ZM71.1305 173.6C71.9305 173.6 72.5838 173.333 73.0905 172.8C73.6105 172.253 73.8705 171.527 73.8705 170.62C73.8705 169.713 73.6105 168.993 73.0905 168.46C72.5838 167.913 71.9305 167.64 71.1305 167.64C70.3305 167.64 69.6705 167.913 69.1505 168.46C68.6438 168.993 68.3905 169.713 68.3905 170.62C68.3905 171.527 68.6438 172.253 69.1505 172.8C69.6705 173.333 70.3305 173.6 71.1305 173.6ZM79.4172 165.24H82.5172V171.64L87.7572 165.24H90.6172V176H87.5172V169.6L82.2972 176H79.4172V165.24ZM98.9964 176.2C97.8364 176.2 96.7964 175.967 95.8764 175.5C94.9697 175.02 94.2564 174.353 93.7364 173.5C93.2164 172.647 92.9564 171.687 92.9564 170.62C92.9564 169.553 93.2164 168.593 93.7364 167.74C94.2564 166.887 94.9697 166.227 95.8764 165.76C96.7964 165.28 97.8364 165.04 98.9964 165.04C100.023 165.04 100.95 165.213 101.776 165.56C102.616 165.893 103.31 166.38 103.856 167.02L102.076 168.7C101.263 167.86 100.276 167.44 99.1164 167.44C98.3431 167.44 97.6764 167.633 97.1164 168.02C96.5564 168.407 96.1764 168.933 95.9764 169.6H100.496V171.74H96.0164C96.2297 172.38 96.6097 172.887 97.1564 173.26C97.7031 173.633 98.3564 173.82 99.1164 173.82C100.263 173.82 101.25 173.393 102.076 172.54L103.856 174.2C103.31 174.853 102.616 175.353 101.776 175.7C100.95 176.033 100.023 176.2 98.9964 176.2ZM117.756 173.44V178.32H114.856V176H107.296V178.32H104.396V173.44H104.836C105.503 173.427 105.963 173.033 106.216 172.26C106.469 171.487 106.629 170.387 106.696 168.96L106.836 165.24H116.216V173.44H117.756ZM109.516 169.18C109.476 170.273 109.389 171.167 109.256 171.86C109.136 172.553 108.903 173.08 108.556 173.44H113.096V167.8H109.576L109.516 169.18ZM119.92 165.24H123.02V169.44H127.7V165.24H130.82V176H127.7V171.98H123.02V176H119.92V165.24ZM138.186 165.08C139.853 165.08 141.133 165.48 142.026 166.28C142.92 167.067 143.366 168.26 143.366 169.86V176H140.446V174.66C139.86 175.66 138.766 176.16 137.166 176.16C136.34 176.16 135.62 176.02 135.006 175.74C134.406 175.46 133.946 175.073 133.626 174.58C133.306 174.087 133.146 173.527 133.146 172.9C133.146 171.9 133.52 171.113 134.266 170.54C135.026 169.967 136.193 169.68 137.766 169.68H140.246C140.246 169 140.04 168.48 139.626 168.12C139.213 167.747 138.593 167.56 137.766 167.56C137.193 167.56 136.626 167.653 136.066 167.84C135.52 168.013 135.053 168.253 134.666 168.56L133.546 166.38C134.133 165.967 134.833 165.647 135.646 165.42C136.473 165.193 137.32 165.08 138.186 165.08ZM137.946 174.06C138.48 174.06 138.953 173.94 139.366 173.7C139.78 173.447 140.073 173.08 140.246 172.6V171.5H138.106C136.826 171.5 136.186 171.92 136.186 172.76C136.186 173.16 136.34 173.48 136.646 173.72C136.966 173.947 137.4 174.06 137.946 174.06ZM155.317 167.8H151.677V176H148.577V167.8H144.937V165.24H155.317V167.8ZM157.18 165.24H160.28V171.64L165.52 165.24H168.38V176H165.28V169.6L160.06 176H157.18V165.24ZM176.699 176.16C175.552 176.16 174.519 175.927 173.599 175.46C172.692 174.98 171.979 174.32 171.459 173.48C170.952 172.64 170.699 171.687 170.699 170.62C170.699 169.553 170.952 168.6 171.459 167.76C171.979 166.92 172.692 166.267 173.599 165.8C174.519 165.32 175.552 165.08 176.699 165.08C177.832 165.08 178.819 165.32 179.659 165.8C180.512 166.267 181.132 166.94 181.519 167.82L179.099 169.12C178.539 168.133 177.732 167.64 176.679 167.64C175.866 167.64 175.192 167.907 174.659 168.44C174.126 168.973 173.859 169.7 173.859 170.62C173.859 171.54 174.126 172.267 174.659 172.8C175.192 173.333 175.866 173.6 176.679 173.6C177.746 173.6 178.552 173.107 179.099 172.12L181.519 173.44C181.132 174.293 180.512 174.96 179.659 175.44C178.819 175.92 177.832 176.16 176.699 176.16ZM192.901 165.24V176H190.121V172.92H187.821L185.781 176H182.461L184.921 172.48C184.175 172.187 183.601 171.767 183.201 171.22C182.815 170.66 182.621 169.987 182.621 169.2C182.621 167.933 183.075 166.96 183.981 166.28C184.901 165.587 186.161 165.24 187.761 165.24H192.901ZM187.821 167.78C187.155 167.78 186.648 167.9 186.301 168.14C185.968 168.38 185.801 168.767 185.801 169.3C185.801 169.833 185.961 170.227 186.281 170.48C186.615 170.72 187.115 170.84 187.781 170.84H190.121V167.78H187.821ZM69.1362 198.44V203.32H66.2362V201H58.6762V203.32H55.7762V198.44H56.2162C56.8828 198.427 57.3428 198.033 57.5962 197.26C57.8495 196.487 58.0095 195.387 58.0762 193.96L58.2162 190.24H67.5962V198.44H69.1362ZM60.8962 194.18C60.8562 195.273 60.7695 196.167 60.6362 196.86C60.5162 197.553 60.2828 198.08 59.9362 198.44H64.4762V192.8H60.9562L60.8962 194.18ZM76.3396 201.16C75.2063 201.16 74.1863 200.927 73.2796 200.46C72.3863 199.98 71.6863 199.32 71.1796 198.48C70.6729 197.64 70.4196 196.687 70.4196 195.62C70.4196 194.553 70.6729 193.6 71.1796 192.76C71.6863 191.92 72.3863 191.267 73.2796 190.8C74.1863 190.32 75.2063 190.08 76.3396 190.08C77.4729 190.08 78.4863 190.32 79.3796 190.8C80.2729 191.267 80.9729 191.92 81.4796 192.76C81.9863 193.6 82.2396 194.553 82.2396 195.62C82.2396 196.687 81.9863 197.64 81.4796 198.48C80.9729 199.32 80.2729 199.98 79.3796 200.46C78.4863 200.927 77.4729 201.16 76.3396 201.16ZM76.3396 198.6C77.1396 198.6 77.7929 198.333 78.2996 197.8C78.8196 197.253 79.0796 196.527 79.0796 195.62C79.0796 194.713 78.8196 193.993 78.2996 193.46C77.7929 192.913 77.1396 192.64 76.3396 192.64C75.5396 192.64 74.8796 192.913 74.3596 193.46C73.8396 193.993 73.5796 194.713 73.5796 195.62C73.5796 196.527 73.8396 197.253 74.3596 197.8C74.8796 198.333 75.5396 198.6 76.3396 198.6ZM95.1896 196.92H93.5696V201H90.4496V190.24H93.5696V194.42H95.2496L98.1696 190.24H101.49L97.7296 195.4L101.75 201H98.0696L95.1896 196.92ZM108.19 201.16C107.056 201.16 106.036 200.927 105.13 200.46C104.236 199.98 103.536 199.32 103.03 198.48C102.523 197.64 102.27 196.687 102.27 195.62C102.27 194.553 102.523 193.6 103.03 192.76C103.536 191.92 104.236 191.267 105.13 190.8C106.036 190.32 107.056 190.08 108.19 190.08C109.323 190.08 110.336 190.32 111.23 190.8C112.123 191.267 112.823 191.92 113.33 192.76C113.836 193.6 114.09 194.553 114.09 195.62C114.09 196.687 113.836 197.64 113.33 198.48C112.823 199.32 112.123 199.98 111.23 200.46C110.336 200.927 109.323 201.16 108.19 201.16ZM108.19 198.6C108.99 198.6 109.643 198.333 110.15 197.8C110.67 197.253 110.93 196.527 110.93 195.62C110.93 194.713 110.67 193.993 110.15 193.46C109.643 192.913 108.99 192.64 108.19 192.64C107.39 192.64 106.73 192.913 106.21 193.46C105.69 193.993 105.43 194.713 105.43 195.62C105.43 196.527 105.69 197.253 106.21 197.8C106.73 198.333 107.39 198.6 108.19 198.6ZM126.936 201V194.56L123.716 199.96H122.396L119.256 194.54V201H116.436V190.24H119.696L123.136 196.46L126.796 190.24H129.716L129.756 201H126.936ZM137.124 190.08C138.791 190.08 140.071 190.48 140.964 191.28C141.857 192.067 142.304 193.26 142.304 194.86V201H139.384V199.66C138.797 200.66 137.704 201.16 136.104 201.16C135.277 201.16 134.557 201.02 133.944 200.74C133.344 200.46 132.884 200.073 132.564 199.58C132.244 199.087 132.084 198.527 132.084 197.9C132.084 196.9 132.457 196.113 133.204 195.54C133.964 194.967 135.131 194.68 136.704 194.68H139.184C139.184 194 138.977 193.48 138.564 193.12C138.151 192.747 137.531 192.56 136.704 192.56C136.131 192.56 135.564 192.653 135.004 192.84C134.457 193.013 133.991 193.253 133.604 193.56L132.484 191.38C133.071 190.967 133.771 190.647 134.584 190.42C135.411 190.193 136.257 190.08 137.124 190.08ZM136.884 199.06C137.417 199.06 137.891 198.94 138.304 198.7C138.717 198.447 139.011 198.08 139.184 197.6V196.5H137.044C135.764 196.5 135.124 196.92 135.124 197.76C135.124 198.16 135.277 198.48 135.584 198.72C135.904 198.947 136.337 199.06 136.884 199.06ZM145.214 190.24H148.314V194.44H152.994V190.24H156.114V201H152.994V196.98H148.314V201H145.214V190.24ZM171.361 198.44V203.32H168.461V201H160.901V203.32H158.001V198.44H158.441C159.108 198.427 159.568 198.033 159.821 197.26C160.075 196.487 160.235 195.387 160.301 193.96L160.441 190.24H169.821V198.44H171.361ZM163.121 194.18C163.081 195.273 162.995 196.167 162.861 196.86C162.741 197.553 162.508 198.08 162.161 198.44H166.701V192.8H163.181L163.121 194.18ZM173.525 190.24H176.625V196.64L181.865 190.24H184.725V201H181.625V194.6L176.405 201H173.525V190.24Z"/>
<line opacity="0.5" x1="48" y1="180.5" x2="193" y2="180.5"/>
<line opacity="0.5" x1="54" y1="205.5" x2="187" y2="205.5"/>

</symbol></svg>